<?xml version="1.0" standalone="yes"?>
<svg xmlns="http://www.w3.org/2000/svg" width="289" height="525">
<path style="fill:#010101; stroke:none;" d="M0 0L0 525L289 525L289 0L0 0z"/>
<path style="fill:#ffffff; stroke:none;" d="M36 5L37 6L36 5z"/>
<path style="fill:#5c555c; stroke:none;" d="M85 154L85 155C51.6515 157.93 55.1922 207.725 88 208C87.6063 255.552 82.3386 305.834 66.6559 351C62.4954 362.982 56.6344 375.171 48.5355 384.999C44.8665 389.452 36.785 392.985 34.6034 398.184C30.7526 407.362 34 424.047 34 434C-5.80228 437.168 5 489.268 5 517L104 517C104 491.664 93.9375 438.236 131 435L131 434L94 434L94.2778 400L107.576 361L116.715 277L118 241L119.742 226.603L140 225L199 225L199 208L146 208C137.031 208 127.109 209.283 119 204.633C101.016 194.322 100.798 170.047 118 158.969C126.586 153.44 137.27 155 147 155L147 154C100.416 150.293 105.289 99.9402 101 66C97.7943 67.1949 94.4734 68.6363 91 68.733C61.4751 69.5551 77.0345 23.5522 65.3472 9.21375C61.119 4.02637 53.9553 5 48 5C44.1653 5 39.5411 4.35907 36.0154 6.17902C30.6032 8.97278 29.7207 14.48 30.0895 20C30.9092 32.2693 31.9742 44.8097 33.5756 57C37.8087 89.2234 29.9094 139.444 69 152.251C74.2886 153.983 79.5028 154 85 154z"/>
<path style="fill:#ffffff; stroke:none;" d="M60 5L61 6L60 5M116 5L117 6L116 5z"/>
<path style="fill:#6c646b; stroke:none;" d="M147 154L147 155C133.397 155 119.941 153.272 110.34 165.004C95.8825 182.671 110.696 207.741 132 207.996C149.661 208.207 167.338 208 185 208C193.988 208 203.941 209.324 212 204.518C235.194 190.686 225.848 155.572 199 155C208.779 152.11 217.794 153.573 227 147.613C255.378 129.241 250.906 83.7747 253.089 54C253.935 42.4489 262.823 12.67 249.995 6.31787C246.639 4.65558 242.632 5.0014 239 5C233.687 4.99792 227.674 4.34979 223.214 7.85419C215.028 14.2859 216.027 37.2537 214.845 47C213.492 58.1561 208.212 69.6302 195 68.892C165.478 67.2424 184.876 27.8377 176.821 12.0046C174.251 6.95294 169.325 5.15601 164 5.01465C149.685 4.63458 133.138 2.98004 119 5.21375C102.175 7.87207 110.128 40.0652 108.826 52C108.12 58.4747 102.371 62.3195 101.484 68.0895C100.219 76.3154 103.03 86.7277 103.83 95C106.533 122.932 112.429 152.512 147 154z"/>
<path style="fill:#ffffff; stroke:none;" d="M169 5L170 6L169 5M227 5L228 6L227 5M248 5L249 6L248 5M34 6L35 7L34 6M62 6L63 7L62 6M114 6L115 7L114 6M172 6L173 7L172 6M224 6L225 7L224 6M251 6L252 7L251 6M33 7L34 8L33 7M64 7L65 8L64 7M112 7L113 8L112 7M173 7L174 8L173 7M223 7L224 8L223 7M252 7L253 8L252 7M32 8L33 9L32 8M65 8L66 9L65 8M111 8L112 9L111 8M174 8L175 9L174 8M221 8L222 9L221 8M253 8L254 9L253 8M31 9L32 10L31 9M175 9L176 10L175 9M254 9L255 10L254 9M66 10L67 11L66 10M110 10L111 11L110 10M176 10L177 11L176 10M220 10L221 11L220 10M255 10L256 11L255 10M30 11L31 12L30 11M67 12L68 13L67 12M109 12L110 13L109 12M177 12L178 13L177 12M219 12L220 13L219 12M256 13L257 14L256 13z"/>
<path style="fill:#908a8e; stroke:none;" d="M256 17L257 18L256 17z"/>
<path style="fill:#ffffff; stroke:none;" d="M68 18L69 19L68 18M256 18L257 19L256 18z"/>
<path style="fill:#6c646b; stroke:none;" d="M68 19L69 20L68 19z"/>
<path style="fill:#ffffff; stroke:none;" d="M218 19L219 20L218 19z"/>
<path style="fill:#6c646b; stroke:none;" d="M30 23L31 24L30 23z"/>
<path style="fill:#908a8e; stroke:none;" d="M30 24L31 25L30 24z"/>
<path style="fill:#ffffff; stroke:none;" d="M30 25L31 26L30 25M69 26L70 27L69 26M217 26L218 27L217 26z"/>
<path style="fill:#6c646b; stroke:none;" d="M69 27L70 28L69 27z"/>
<path style="fill:#908a8e; stroke:none;" d="M255 28L256 29L255 28z"/>
<path style="fill:#ffffff; stroke:none;" d="M255 29L256 30L255 29M70 33L71 34L70 33z"/>
<path style="fill:#6c646b; stroke:none;" d="M31 34L32 35L31 34M70 34L71 35L70 34z"/>
<path style="fill:#ffffff; stroke:none;" d="M216 34L217 35L216 34z"/>
<path style="fill:#908a8e; stroke:none;" d="M31 35L32 36L31 35z"/>
<path style="fill:#ffffff; stroke:none;" d="M31 36L32 37L31 36z"/>
<path style="fill:#908a8e; stroke:none;" d="M254 39L255 40L254 39z"/>
<path style="fill:#ffffff; stroke:none;" d="M254 40L255 41L254 40M71 41L72 42L71 41M215 41L216 42L215 41z"/>
<path style="fill:#6c646b; stroke:none;" d="M71 42L72 43L71 42M32 45L33 46L32 45z"/>
<path style="fill:#908a8e; stroke:none;" d="M32 46L33 47L32 46z"/>
<path style="fill:#ffffff; stroke:none;" d="M32 47L33 48L32 47M72 48L73 49L72 48M214 48L215 49L214 48z"/>
<path style="fill:#6c646b; stroke:none;" d="M72 49L73 50L72 49z"/>
<path style="fill:#908a8e; stroke:none;" d="M214 49L215 50L214 49M253 50L254 51L253 50z"/>
<path style="fill:#ffffff; stroke:none;" d="M253 51L254 52L253 51M108 54L109 55L108 54M73 55L74 56L73 55M213 55L214 56L213 55z"/>
<path style="fill:#6c646b; stroke:none;" d="M33 56L34 57L33 56z"/>
<path style="fill:#ffffff; stroke:none;" d="M178 56L179 57L178 56z"/>
<path style="fill:#908a8e; stroke:none;" d="M33 57L34 58L33 57z"/>
<path style="fill:#ffffff; stroke:none;" d="M33 58L34 59L33 58M74 58L75 59L74 58M107 58L108 59L107 58M179 58L180 59L179 58M212 58L213 59L212 58M75 60L76 61L75 60M106 60L107 61L106 60M180 60L181 61L180 60M211 60L212 61L211 60M76 61L77 62L76 61M105 61L106 62L105 61M210 61L211 62L210 61z"/>
<path style="fill:#908a8e; stroke:none;" d="M252 61L253 62L252 61z"/>
<path style="fill:#ffffff; stroke:none;" d="M181 62L182 63L181 62M252 62L253 63L252 62M77 63L78 64L77 63M104 63L105 64L104 63M182 63L183 64L182 63M209 63L210 64L209 63M78 64L79 65L78 64M103 64L104 65L103 64M183 64L184 65L183 64M208 64L209 65L208 64M80 65L81 66L80 65M101 65L102 66L101 65M184 65L185 66L184 65M206 65L207 66L206 65M81 66L82 67L81 66M99 66L100 67L99 66M186 66L187 67L186 66M205 66L206 67L205 66z"/>
<path style="fill:#6c646b; stroke:none;" d="M34 67L35 68L34 67z"/>
<path style="fill:#ffffff; stroke:none;" d="M84 67L85 68L84 67M97 67L98 68L97 67M188 67L189 68L188 67M203 67L204 68L203 67z"/>
<path style="fill:#908a8e; stroke:none;" d="M34 68L35 69L34 68z"/>
<path style="fill:#6c646b; stroke:none;" d="M87 68L88 69L87 68z"/>
<path style="fill:#ffffff; stroke:none;" d="M88 68L89 69L88 68M93 68L94 69L93 68M191 68L192 69L191 68M200 68L201 69L200 68M34 69L35 70L34 69M251 73L252 74L251 73z"/>
<path style="fill:#6c646b; stroke:none;" d="M35 78L36 79L35 78z"/>
<path style="fill:#908a8e; stroke:none;" d="M35 79L36 80L35 79z"/>
<path style="fill:#ffffff; stroke:none;" d="M35 80L36 81L35 80M250 84L251 85L250 84z"/>
<path style="fill:#6c646b; stroke:none;" d="M36.3333 89.6667L36.6667 90.3333L36.3333 89.6667z"/>
<path style="fill:#ffffff; stroke:none;" d="M36 91L37 92L36 91M249 95L250 96L249 95z"/>
<path style="fill:#6c646b; stroke:none;" d="M37.3333 100.667L37.6667 101.333L37.3333 100.667z"/>
<path style="fill:#ffffff; stroke:none;" d="M37 102L38 103L37 102z"/>
<path style="fill:#908a8e; stroke:none;" d="M248 106L249 107L248 106z"/>
<path style="fill:#ffffff; stroke:none;" d="M248 107L249 108L248 107z"/>
<path style="fill:#6c646b; stroke:none;" d="M38.3333 111.667L38.6667 112.333L38.3333 111.667z"/>
<path style="fill:#ffffff; stroke:none;" d="M38 113L39 114L38 113M247 116L248 117L247 116z"/>
<path style="fill:#6c646b; stroke:none;" d="M39 119L40 120L39 119z"/>
<path style="fill:#ffffff; stroke:none;" d="M39 120L40 121L39 120M246 121L247 122L246 121M40 123L41 124L40 123M245 124L246 125L245 124M41 126L42 127L41 126M244 127L245 128L244 127M42 128L43 129L42 128M243 129L244 130L243 129M43 130L44 131L43 130M242 131L243 132L242 131M44 132L45 133L44 132M241 133L242 134L241 133M45 134L46 135L45 134M240 134L241 135L240 134M46 135L47 136L46 135M239 136L240 137L239 136M47 137L48 138L47 137M238 137L239 138L238 137M48 138L49 139L48 138M237 138L238 139L237 138M49 139L50 140L49 139M236 139L237 140L236 139M50 140L51 141L50 140M235 140L236 141L235 140M51 141L52 142L51 141M234 141L235 142L234 141M52 142L53 143L52 142M233 142L234 143L233 142M53 143L54 144L53 143M232 143L233 144L232 143M54 144L55 145L54 144M231 144L232 145L231 144M55 145L56 146L55 145M230 145L231 146L230 145M57 146L58 147L57 146M228 146L229 147L228 146M58 147L59 148L58 147M227 147L228 148L227 147M60 148L61 149L60 148M225 148L226 149L225 148M62 149L63 150L62 149M224 149L225 150L224 149M64 150L65 151L64 150M221 150L222 151L221 150M66 151L67 152L66 151M219 151L220 152L219 151M69 152L70 153L69 152M216 152L217 153L216 152M72 153L73 154L72 153z"/>
<path style="fill:#6c646b; stroke:none;" d="M73 153L74 154L73 153z"/>
<path style="fill:#ffffff; stroke:none;" d="M212 153L213 154L212 153z"/>
<path style="fill:#908a8e; stroke:none;" d="M80 154L80 155L83 155L80 154z"/>
<path style="fill:#6c646b; stroke:none;" d="M83.6667 154.333L84.3333 154.667L83.6667 154.333z"/>
<path style="fill:#908a8e; stroke:none;" d="M199.667 154.333L200.333 154.667L199.667 154.333z"/>
<path style="fill:#6c646b; stroke:none;" d="M80 155L81 156L80 155z"/>
<path style="fill:#ffffff; stroke:none;" d="M205 155L206 156L205 155M77 156L78 157L77 156M208 156L209 157L208 156M75 157L76 158L75 157M210 157L211 158L210 157M73 158L74 159L73 158M212 158L213 159L212 158M72 159L73 160L72 159M214 159L215 160L214 159M70 160L71 161L70 160M215 160L216 161L215 160M69 161L70 162L69 161M216 161L217 162L216 161M68 162L69 163L68 162M217 162L218 163L217 162M67 163L68 164L67 163M218 163L219 164L218 163M219 164L220 165L219 164M66 165L67 166L66 165M220 165L221 166L220 165M65 166L66 167L65 166M64 167L65 168L64 167M221 167L222 168L221 167M222 168L223 169L222 168M63 169L64 170L63 169M223 170L224 171L223 170M62 171L63 172L62 171M224 173L225 174L224 173M61 174L62 175L61 174M225 177L226 178L225 177M225 185L226 186L225 185z"/>
<path style="fill:#6c646b; stroke:none;" d="M61 187L62 188L61 187z"/>
<path style="fill:#ffffff; stroke:none;" d="M61 188L62 189L61 188M224 189L225 190L224 189M62 191L63 192L62 191M223 191L224 192L223 191M63 193L64 194L63 193M222 193L223 194L222 193M64 195L65 196L64 195M221 195L222 196L221 195M65 196L66 197L65 196M66 197L67 198L66 197M220 197L221 198L220 197M67 198L68 199L67 198M219 198L220 199L219 198M218 199L219 200L218 199M68 200L69 201L68 200M217 200L218 201L217 200M70 201L71 202L70 201M216 201L217 202L216 201M71 202L72 203L71 202M215 202L216 203L215 202M72 203L73 204L72 203M213 203L214 204L213 203M74 204L75 205L74 204M212 204L213 205L212 204M75 205L76 206L75 205M210 205L211 206L210 205M77 206L78 207L77 206M208 206L209 207L208 206M80 207L81 208L80 207M204 207L205 208L204 207z"/>
<path style="fill:#6c646b; stroke:none;" d="M87 208L87 216L88 216L87 208z"/>
<path style="fill:#ffffff; stroke:none;" d="M199 222L200 223L199 222z"/>
<path style="fill:#908a8e; stroke:none;" d="M199 223L200 224L199 223z"/>
<path style="fill:#ffffff; stroke:none;" d="M199 224L200 225L199 224z"/>
<path style="fill:#6c646b; stroke:none;" d="M94 434L131 434L131 435C93.6238 436.708 104 492.119 104 517L237 517L269 517C272.151 517 278.739 518.216 280.972 515.397C283.779 511.852 282 502.32 282 498C282 482.222 286.419 459.023 275.671 446.001C272.23 441.832 268.069 438.427 263 436.468C259.867 435.258 255.14 435.377 253.603 431.852C249.37 422.137 256.257 408.932 252.397 399.043C250.619 394.49 244.642 392.033 241.286 388.711C234.852 382.339 229.748 374.159 225.889 366C205.996 323.943 199.95 271.051 199 225L141 225L119.742 226.028L118 239L116.715 276L107.576 360L94.2778 399L94 434z"/>
<path style="fill:#ffffff; stroke:none;" d="M199 229L200 230L199 229z"/>
<path style="fill:#908a8e; stroke:none;" d="M199.333 230.667L199.667 231.333L199.333 230.667z"/>
<path style="fill:#ffffff; stroke:none;" d="M86 237L87 238L86 237z"/>
<path style="fill:#6c646b; stroke:none;" d="M86 238L86 241L87 241L86 238z"/>
<path style="fill:#ffffff; stroke:none;" d="M200 246L201 247L200 246z"/>
<path style="fill:#908a8e; stroke:none;" d="M200 247L201 248L200 247z"/>
<path style="fill:#ffffff; stroke:none;" d="M85 250L86 251L85 250z"/>
<path style="fill:#908a8e; stroke:none;" d="M85 251L86 252L85 251z"/>
<path style="fill:#6c646b; stroke:none;" d="M85.3333 252.667L85.6667 253.333L85.3333 252.667z"/>
<path style="fill:#ffffff; stroke:none;" d="M201 258L202 259L201 258M84 261L85 262L84 261z"/>
<path style="fill:#908a8e; stroke:none;" d="M84 262L85 263L84 262z"/>
<path style="fill:#6c646b; stroke:none;" d="M84 263L85 264L84 263z"/>
<path style="fill:#ffffff; stroke:none;" d="M202 267L203 268L202 267z"/>
<path style="fill:#908a8e; stroke:none;" d="M202 268L203 269L202 268z"/>
<path style="fill:#ffffff; stroke:none;" d="M83 271L84 272L83 271z"/>
<path style="fill:#6c646b; stroke:none;" d="M83 272L84 273L83 272z"/>
<path style="fill:#ffffff; stroke:none;" d="M203 276L204 277L203 276M82 279L83 280L82 279z"/>
<path style="fill:#6c646b; stroke:none;" d="M82 280L83 281L82 280z"/>
<path style="fill:#ffffff; stroke:none;" d="M204 283L205 284L204 283z"/>
<path style="fill:#908a8e; stroke:none;" d="M204 284L205 285L204 284z"/>
<path style="fill:#ffffff; stroke:none;" d="M81 286L82 287L81 286z"/>
<path style="fill:#6c646b; stroke:none;" d="M81 287L82 288L81 287z"/>
<path style="fill:#ffffff; stroke:none;" d="M205 290L206 291L205 290M80 293L81 294L80 293z"/>
<path style="fill:#6c646b; stroke:none;" d="M80 294L81 295L80 294z"/>
<path style="fill:#ffffff; stroke:none;" d="M206 297L207 298L206 297M79 299L80 300L79 299M207 302L208 303L207 302M78 305L79 306L78 305M208 308L209 309L208 308M77 310L78 311L77 310M209 313L210 314L209 313M76 315L77 316L76 315M210 317L211 318L210 317M75 319L76 320L75 319z"/>
<path style="fill:#6c646b; stroke:none;" d="M75 320L76 321L75 320z"/>
<path style="fill:#ffffff; stroke:none;" d="M211 322L212 323L211 322M74 324L75 325L74 324M212 326L213 327L212 326M73 328L74 329L73 328M213 330L214 331L213 330M72 332L73 333L72 332M214 334L215 335L214 334M71 335L72 336L71 335M215 337L216 338L215 337M70 339L71 340L70 339M216 341L217 342L216 341M69 342L70 343L69 342M217 344L218 345L217 344M68 345L69 346L68 345M218 347L219 348L218 347M67 348L68 349L67 348M219 350L220 351L219 350M66 351L67 352L66 351M220 353L221 354L220 353M65 354L66 355L65 354M221 355L222 356L221 355M64 356L65 357L64 356M222 358L223 359L222 358M63 359L64 360L63 359M223 360L224 361L223 360M62 361L63 362L62 361M224 362L225 363L224 362M61 363L62 364L61 363M60 365L61 366L60 365M225 365L226 366L225 365M59 367L60 368L59 367M226 367L227 368L226 367M58 369L59 370L58 369M227 369L228 370L227 369M228 370L229 371L228 370M57 371L58 372L57 371M229 372L230 373L229 372M56 373L57 374L56 373M230 374L231 375L230 374M55 375L56 376L55 375M54 376L55 377L54 376M231 376L232 377L231 376M232 377L233 378L232 377M53 378L54 379L53 378M52 379L53 380L52 379M233 379L234 380L233 379M234 380L235 381L234 380M51 381L52 382L51 381M50 382L51 383L50 382M235 382L236 383L235 382M49 383L50 384L49 383M236 383L237 384L236 383M237 384L238 385L237 384M48 385L49 386L48 385M238 385L239 386L238 385M47 386L48 387L47 386M239 386L240 387L239 386M46 387L47 388L46 387M45 388L46 389L45 388M240 388L241 389L240 388M44 389L45 390L44 389M241 389L242 390L241 389M43 390L44 391L43 390M243 390L244 391L243 390M42 391L43 392L42 391M244 391L245 392L244 391M40 392L41 393L40 392M245 392L246 393L245 392M39 393L40 394L39 393M246 393L247 394L246 393M37 394L38 395L37 394M248 394L249 395L248 394M36 395L37 396L36 395M250 395L251 396L250 395M34 396L35 397L34 396M251 396L252 397L251 396M33 397L34 398L33 397M252 397L253 398L252 397z"/>
<path style="fill:#908a8e; stroke:none;" d="M33 398L33 434L34 434C34 423.613 37.0114 407.56 33 398z"/>
<path style="fill:#ffffff; stroke:none;" d="M28 434L29 435L28 434z"/>
<path style="fill:#6c646b; stroke:none;" d="M29 434L30 435L29 434z"/>
<path style="fill:#908a8e; stroke:none;" d="M254 434L255 435L254 434z"/>
<path style="fill:#ffffff; stroke:none;" d="M255 434L256 435L255 434M24 435L25 436L24 435M260 435L261 436L260 435M22 436L23 437L22 436M263 436L264 437L263 436M20 437L21 438L20 437M265 437L266 438L265 437M18 438L19 439L18 438M267 438L268 439L267 438M17 439L18 440L17 439M269 439L270 440L269 439M15 440L16 441L15 440M270 440L271 441L270 440M14 441L15 442L14 441M271 441L272 442L271 441M13 442L14 443L13 442M272 442L273 443L272 442M12 443L13 444L12 443M273 443L274 444L273 443M11 444L12 445L11 444M274 444L275 445L274 444M10 445L11 446L10 445M275 445L276 446L275 445M276 446L277 447L276 446M9 447L10 448L9 447M8 448L9 449L8 448M277 448L278 449L277 448M278 449L279 450L278 449M7 450L8 451L7 450M279 451L280 452L279 451M6 452L7 453L6 452M280 454L281 455L280 454M5 455L6 456L5 455M281 458L282 459L281 458M4 461L5 462L4 461z"/>
<path style="fill:#908a8e; stroke:none;" d="M4 462L4 516L5 516L5 480L4 462z"/>
<path style="fill:#ffffff; stroke:none;" d="M4 516L5 517L4 516M281 516L282 517L281 516z"/>
</svg>
