<?xml version="1.0" standalone="no"?>
<!DOCTYPE svg PUBLIC "-//W3C//DTD SVG 20010904//EN"
 "http://www.w3.org/TR/2001/REC-SVG-20010904/DTD/svg10.dtd">
<svg version="1.0" xmlns="http://www.w3.org/2000/svg"
 width="512.000000pt" height="512.000000pt" viewBox="0 0 512.000000 512.000000"
 preserveAspectRatio="xMidYMid meet">

<g transform="translate(0.000000,512.000000) scale(0.100000,-0.100000)"
fill="#000000" stroke="none">
<path d="M2330 5110 c-482 -43 -950 -230 -1350 -538 -126 -97 -363 -340 -461
-472 -120 -162 -170 -244 -254 -415 -88 -179 -132 -296 -180 -476 -210 -799
-17 -1660 512 -2283 32 -38 62 -75 68 -82 7 -10 -46 -70 -218 -242 -229 -231
-234 -237 -228 -302 3 -32 49 -78 81 -81 65 -6 71 -1 302 228 172 171 232 225
242 218 7 -6 48 -39 91 -75 625 -525 1477 -714 2274 -505 180 48 297 92 476
180 269 132 460 269 681 489 220 221 357 412 489 681 88 179 132 296 180 476
210 799 17 1660 -512 2283 -32 38 -62 75 -68 82 -7 10 46 70 218 242 229 231
234 237 228 302 -3 32 -49 78 -81 81 -65 6 -71 1 -302 -228 -172 -171 -232
-225 -242 -218 -7 6 -48 39 -91 75 -455 383 -1049 595 -1645 589 -69 -1 -163
-5 -210 -9z m385 -210 c432 -31 825 -169 1175 -413 93 -65 240 -185 240 -195
0 -9 -3293 -3302 -3302 -3302 -10 0 -130 147 -195 240 -580 833 -556 1924 61
2750 135 182 402 429 596 552 334 213 713 339 1105 368 150 11 168 11 320 0z
m1648 -847 c700 -841 725 -2026 63 -2913 -135 -182 -402 -429 -596 -552 -551
-351 -1215 -460 -1841 -303 -329 83 -655 250 -921 472 -43 36 -78 68 -78 71 0
9 3293 3302 3302 3302 3 0 35 -35 71 -77z"/>
</g>
</svg>
